<?xml version="1.0" encoding="UTF-8"?>
<svg width="45px" height="63px" viewBox="0 0 45 63" version="1.1" xmlns="http://www.w3.org/2000/svg" xmlns:xlink="http://www.w3.org/1999/xlink">
    <!-- Generator: Sketch 45.1 (43504) - http://www.bohemiancoding.com/sketch -->
    <title>Marker</title>
    <desc>Created with Sketch.</desc>
    <defs>
        <linearGradient x1="50%" y1="-1.11022302e-14%" x2="50%" y2="100%" id="linearGradient-1">
            <stop stop-color="#FABD61" offset="0%"></stop>
            <stop stop-color="#EC7633" offset="100%"></stop>
        </linearGradient>
    </defs>
    <g id="Pages" stroke="none" stroke-width="1" fill="none" fill-rule="evenodd">
        <g id="Contact" transform="translate(-697.000000, -571.000000)" fill="url(#linearGradient-1)">
            <g id="Map-container" transform="translate(150.000000, 376.000000)">
                <g id="Map" transform="translate(10.000000, 10.000000)">
                    <path d="M559.5,185 C565.687531,185 570.984353,187.156228 575.390625,191.46875 C579.796897,195.781272 582,200.984345 582,207.078125 C582,211.953149 580.125019,217.812466 576.375,224.65625 C572.624981,231.500034 568.875019,237.124978 565.125,241.53125 L559.5,248 C558.843747,247.343747 558.023442,246.429693 557.039062,245.257812 C556.054683,244.085932 554.27345,241.812517 551.695312,238.4375 C549.117175,235.062483 546.84376,231.781266 544.875,228.59375 C542.90624,225.406234 541.101571,221.796895 539.460938,217.765625 C537.820304,213.734355 537,210.17189 537,207.078125 C537,200.984345 539.203103,195.781272 543.609375,191.46875 C548.015647,187.156228 553.312469,185 559.5,185 Z M559.5,214.953125 C561.750011,214.953125 563.64843,214.179695 565.195312,212.632812 C566.742195,211.08593 567.515625,209.234386 567.515625,207.078125 C567.515625,204.921864 566.742195,203.07032 565.195312,201.523438 C563.64843,199.976555 561.750011,199.203125 559.5,199.203125 C557.249989,199.203125 555.35157,199.976555 553.804688,201.523438 C552.257805,203.07032 551.484375,204.921864 551.484375,207.078125 C551.484375,209.234386 552.257805,211.08593 553.804688,212.632812 C555.35157,214.179695 557.249989,214.953125 559.5,214.953125 Z" id="Marker"></path>
                </g>
            </g>
        </g>
    </g>
</svg>